<?xml version="1.0" encoding="UTF-8"?>
<svg width="365px" height="365px" viewBox="0 0 365 365" version="1.1" xmlns="http://www.w3.org/2000/svg" xmlns:xlink="http://www.w3.org/1999/xlink">
    <title>SA-logo</title>
    <g id="页面-1" stroke="none" stroke-width="1" fill="none" fill-rule="evenodd">
        <g id="画板" transform="translate(-124.000000, -43.000000)">
            <g id="SA-logo" transform="translate(124.000000, 43.000000)">
                <path d="M182.5,0 C283.285625,0 365,81.714375 365,182.5 C365,283.285625 283.285625,365 182.5,365 C81.714375,365 0,283.285625 0,182.5 C0,81.714375 81.714375,0 182.5,0 Z" id="路径" fill="#23BBF3"></path>
                <path d="M309,240.622113 C309,257.379811 295.41534,270.964048 278.685239,270.964048 C274.742041,270.964048 271.049566,270.073653 267.607815,268.726645 C246,290.484255 216.095514,304 183.022793,304 C149.950072,304 120.022793,290.484255 98.4377713,268.726645 C94.9732272,270.073653 91.2579595,270.964048 87.3375543,270.964048 C70.5846599,270.964048 57,257.379811 57,240.622113 C57,230.964748 61.8093343,222.722883 68.8295948,217.175035 C65.8664978,206.764258 63.7695369,195.988191 63.7695369,184.618527 C63.7695369,128.980231 101.993488,82.6111791 153.482996,69.3922323 C155.511577,54.5979706 167.660275,43 183,43 C198.339725,43 210.488423,54.5979706 212.517004,69.3922323 C264.029305,82.5883485 302.276049,128.9574 302.276049,184.618527 C302.276049,195.988191 300.179088,206.787089 297.215991,217.197866 C304.213459,222.745714 309,230.964748 309,240.622113 Z M72.5220695,240.599283 C72.5220695,248.795486 79.154848,255.439206 87.3375543,255.439206 C95.5202605,255.439206 102.153039,248.795486 102.153039,240.599283 C102.153039,232.42591 95.5202605,225.78219 87.3375543,225.78219 C79.154848,225.78219 72.5220695,232.42591 72.5220695,240.599283 Z M183,58.5248425 C174.817294,58.5248425 168.184515,65.1685619 168.184515,73.3647656 C168.184515,81.5381386 174.817294,88.1818579 183,88.1818579 C191.205499,88.1818579 197.838278,81.5381386 197.838278,73.3647656 C197.838278,65.1685619 191.205499,58.5248425 183,58.5248425 Z M210.602388,85.6476557 C205.884226,96.2639083 195.353835,103.7067 183,103.7067 C170.668958,103.7067 160.138567,96.2639083 155.397612,85.6704864 C111.976845,97.8163926 79.9298119,137.290588 79.9298119,184.618527 C79.9298119,193.796449 81.5025326,202.517757 83.7590449,210.987929 C84.9898698,210.828114 86.0611433,210.257348 87.3375543,210.257348 C104.067656,210.257348 117.652315,223.841585 117.652315,240.622113 C117.652315,247.425647 114.985528,253.407278 111.201881,258.475682 C129.755427,276.580388 155.055716,287.813069 183.022793,287.813069 C210.98987,287.813069 236.244573,276.580388 254.820912,258.498513 C251.037265,253.430108 248.347685,247.448478 248.347685,240.622113 C248.347685,223.841585 261.932344,210.257348 278.685239,210.257348 C279.96165,210.257348 281.055716,210.828114 282.286541,210.987929 C284.52026,202.517757 286.115774,193.796449 286.115774,184.618527 C286.115774,137.267757 254.045948,97.7935619 210.602388,85.6476557 Z M278.685239,225.78219 C270.502533,225.78219 263.869754,232.42591 263.869754,240.599283 C263.869754,248.795486 270.502533,255.439206 278.685239,255.439206 C286.867945,255.439206 293.500724,248.795486 293.500724,240.599283 C293.500724,232.42591 286.867945,225.78219 278.685239,225.78219 Z M183.364689,239.480581 C183.364689,239.480581 156.172576,233.202152 141.243126,196.102344 C131.692836,172.358467 134.519175,147.564381 135.180174,133.272393 C135.180174,133.203901 143.65919,143.68317 160.115774,142.815605 C172.720333,142.153516 183.364689,129.550997 183.364689,129.550997 C183.364689,129.550997 191.365051,143.386372 211.308973,142.815605 C222.226845,142.518807 231.526411,133.112579 231.526411,133.272393 C231.936686,152.929584 233.327062,170.440693 224.80246,194.755336 C212.471418,229.914538 183.364689,239.480581 183.364689,239.480581 Z M206.203329,165.143982 C204.493849,163.431683 201.713097,163.431683 200.003618,165.143982 L174.931259,190.234867 L165.358177,180.645994 C163.648698,178.933695 160.867945,178.933695 159.158466,180.645994 C157.448987,182.358293 157.448987,185.143632 159.158466,186.855931 L171.557887,199.45845 C173.153401,201.056596 176.914255,200.85112 178.304631,199.45845 C178.509768,199.275805 178.486975,199.024668 178.646527,198.819192 C178.692113,198.7507 178.783285,198.77353 178.828871,198.727869 L206.203329,171.331088 C207.912808,169.618789 207.912808,166.856281 206.203329,165.143982 Z" id="形状" fill="#FFFFFF"></path>
            </g>
        </g>
    </g>
</svg>